<svg width="290" height="99" viewBox="0 0 290 99" fill="none" xmlns="http://www.w3.org/2000/svg">
<path d="M33.98 11.07C33.52 11.07 33.1067 10.99 32.74 10.83C32.38 10.6633 32.0967 10.4367 31.89 10.15C31.6833 9.85667 31.5767 9.52 31.57 9.14H32.54C32.5733 9.46667 32.7067 9.74333 32.94 9.97C33.18 10.19 33.5267 10.3 33.98 10.3C34.4133 10.3 34.7533 10.1933 35 9.98C35.2533 9.76 35.38 9.48 35.38 9.14C35.38 8.87333 35.3067 8.65667 35.16 8.49C35.0133 8.32333 34.83 8.19667 34.61 8.11C34.39 8.02333 34.0933 7.93 33.72 7.83C33.26 7.71 32.89 7.59 32.61 7.47C32.3367 7.35 32.1 7.16333 31.9 6.91C31.7067 6.65 31.61 6.30333 31.61 5.87C31.61 5.49 31.7067 5.15333 31.9 4.86C32.0933 4.56667 32.3633 4.34 32.71 4.18C33.0633 4.02 33.4667 3.94 33.92 3.94C34.5733 3.94 35.1067 4.10333 35.52 4.43C35.94 4.75667 36.1767 5.19 36.23 5.73H35.23C35.1967 5.46333 35.0567 5.23 34.81 5.03C34.5633 4.82333 34.2367 4.72 33.83 4.72C33.45 4.72 33.14 4.82 32.9 5.02C32.66 5.21333 32.54 5.48667 32.54 5.84C32.54 6.09333 32.61 6.3 32.75 6.46C32.8967 6.62 33.0733 6.74333 33.28 6.83C33.4933 6.91 33.79 7.00333 34.17 7.11C34.63 7.23667 35 7.36333 35.28 7.49C35.56 7.61 35.8 7.8 36 8.06C36.2 8.31333 36.3 8.66 36.3 9.1C36.3 9.44 36.21 9.76 36.03 10.06C35.85 10.36 35.5833 10.6033 35.23 10.79C34.8767 10.9767 34.46 11.07 33.98 11.07ZM42.4991 5.52V11H41.5891V10.19C41.4158 10.47 41.1725 10.69 40.8591 10.85C40.5525 11.0033 40.2125 11.08 39.8391 11.08C39.4125 11.08 39.0291 10.9933 38.6891 10.82C38.3491 10.64 38.0791 10.3733 37.8791 10.02C37.6858 9.66667 37.5891 9.23667 37.5891 8.73V5.52H38.4891V8.61C38.4891 9.15 38.6258 9.56667 38.8991 9.86C39.1725 10.1467 39.5458 10.29 40.0191 10.29C40.5058 10.29 40.8891 10.14 41.1691 9.84C41.4491 9.54 41.5891 9.10333 41.5891 8.53V5.52H42.4991ZM46.7056 5.42C47.3723 5.42 47.9123 5.62333 48.3256 6.03C48.739 6.43 48.9456 7.01 48.9456 7.77V11H48.0456V7.9C48.0456 7.35333 47.909 6.93667 47.6356 6.65C47.3623 6.35667 46.989 6.21 46.5156 6.21C46.0356 6.21 45.6523 6.36 45.3656 6.66C45.0856 6.96 44.9456 7.39667 44.9456 7.97V11H44.0356V5.52H44.9456V6.3C45.1256 6.02 45.369 5.80333 45.6756 5.65C45.989 5.49667 46.3323 5.42 46.7056 5.42ZM51.3421 6.41C51.5021 6.09667 51.7288 5.85333 52.0221 5.68C52.3221 5.50667 52.6854 5.42 53.1121 5.42V6.36H52.8721C51.8521 6.36 51.3421 6.91333 51.3421 8.02V11H50.4321V5.52H51.3421V6.41ZM54.6326 4.63C54.4592 4.63 54.3126 4.57 54.1926 4.45C54.0726 4.33 54.0126 4.18333 54.0126 4.01C54.0126 3.83667 54.0726 3.69 54.1926 3.57C54.3126 3.45 54.4592 3.39 54.6326 3.39C54.7992 3.39 54.9392 3.45 55.0526 3.57C55.1726 3.69 55.2326 3.83667 55.2326 4.01C55.2326 4.18333 55.1726 4.33 55.0526 4.45C54.9392 4.57 54.7992 4.63 54.6326 4.63ZM55.0726 5.52V11H54.1626V5.52H55.0726ZM58.5635 11.09C58.1435 11.09 57.7668 11.02 57.4335 10.88C57.1002 10.7333 56.8368 10.5333 56.6435 10.28C56.4502 10.02 56.3435 9.72333 56.3235 9.39H57.2635C57.2902 9.66333 57.4168 9.88667 57.6435 10.06C57.8768 10.2333 58.1802 10.32 58.5535 10.32C58.9002 10.32 59.1735 10.2433 59.3735 10.09C59.5735 9.93667 59.6735 9.74333 59.6735 9.51C59.6735 9.27 59.5668 9.09333 59.3535 8.98C59.1402 8.86 58.8102 8.74333 58.3635 8.63C57.9568 8.52333 57.6235 8.41667 57.3635 8.31C57.1102 8.19667 56.8902 8.03333 56.7035 7.82C56.5235 7.6 56.4335 7.31333 56.4335 6.96C56.4335 6.68 56.5168 6.42333 56.6835 6.19C56.8502 5.95667 57.0868 5.77333 57.3935 5.64C57.7002 5.5 58.0502 5.43 58.4435 5.43C59.0502 5.43 59.5402 5.58333 59.9135 5.89C60.2868 6.19667 60.4868 6.61667 60.5135 7.15H59.6035C59.5835 6.86333 59.4668 6.63333 59.2535 6.46C59.0468 6.28667 58.7668 6.2 58.4135 6.2C58.0868 6.2 57.8268 6.27 57.6335 6.41C57.4402 6.55 57.3435 6.73333 57.3435 6.96C57.3435 7.14 57.4002 7.29 57.5135 7.41C57.6335 7.52333 57.7802 7.61667 57.9535 7.69C58.1335 7.75667 58.3802 7.83333 58.6935 7.92C59.0868 8.02667 59.4068 8.13333 59.6535 8.24C59.9002 8.34 60.1102 8.49333 60.2835 8.7C60.4635 8.90667 60.5568 9.17667 60.5635 9.51C60.5635 9.81 60.4802 10.08 60.3135 10.32C60.1468 10.56 59.9102 10.75 59.6035 10.89C59.3035 11.0233 58.9568 11.09 58.5635 11.09ZM66.8481 8.05C66.8481 8.22333 66.8381 8.40667 66.8181 8.6H62.4381C62.4715 9.14 62.6548 9.56333 62.9881 9.87C63.3281 10.17 63.7381 10.32 64.2181 10.32C64.6115 10.32 64.9381 10.23 65.1981 10.05C65.4648 9.86333 65.6515 9.61667 65.7581 9.31H66.7381C66.5915 9.83667 66.2981 10.2667 65.8581 10.6C65.4181 10.9267 64.8715 11.09 64.2181 11.09C63.6981 11.09 63.2315 10.9733 62.8181 10.74C62.4115 10.5067 62.0915 10.1767 61.8581 9.75C61.6248 9.31667 61.5081 8.81667 61.5081 8.25C61.5081 7.68333 61.6215 7.18667 61.8481 6.76C62.0748 6.33333 62.3915 6.00667 62.7981 5.78C63.2115 5.54667 63.6848 5.43 64.2181 5.43C64.7381 5.43 65.1981 5.54333 65.5981 5.77C65.9981 5.99667 66.3048 6.31 66.5181 6.71C66.7381 7.10333 66.8481 7.55 66.8481 8.05ZM65.9081 7.86C65.9081 7.51333 65.8315 7.21667 65.6781 6.97C65.5248 6.71667 65.3148 6.52667 65.0481 6.4C64.7881 6.26667 64.4981 6.2 64.1781 6.2C63.7181 6.2 63.3248 6.34667 62.9981 6.64C62.6781 6.93333 62.4948 7.34 62.4481 7.86H65.9081Z" fill="#C4C4C4"/>
<path d="M0.312102 76.46L0 76L49 76.0366L48.6879 76.4966L48.3758 76.9564L48.0637 77.4158L47.7516 77.8746L47.4395 78.3327L47.1274 78.7899L46.8153 79.2459L46.5032 79.7006L46.1911 80.1539L45.879 80.6055L45.5669 81.0552L45.2548 81.503L44.9427 81.9485L44.6306 82.3916L44.3185 82.8322L44.0064 83.2701L43.6943 83.7051L43.3822 84.1369L43.0701 84.5655L42.758 84.9907L42.4459 85.4123L42.1338 85.8302L41.8217 86.244L41.5096 86.6538L41.1975 87.0594L40.8853 87.4605L40.5732 87.857L40.2611 88.2488L39.949 88.6357L39.6369 89.0175L39.3248 89.3942L39.0127 89.7654L38.7006 90.1312L38.3885 90.4913L38.0764 90.8456L37.7643 91.194L37.4522 91.5363L37.1401 91.8724L36.828 92.2021L36.5159 92.5254L36.2038 92.842L35.8917 93.1519L35.5796 93.455L35.2675 93.7511L34.9554 94.04L34.6433 94.3218L34.3312 94.5962L34.0191 94.8632L33.707 95.1226L33.3949 95.3744L33.0828 95.6185L32.7707 95.8547L32.4586 96.0829L32.1465 96.3031L31.8344 96.5152L31.5223 96.7191L31.2102 96.9147L30.8981 97.102L30.586 97.2808L30.2739 97.4511L29.9618 97.6128L29.6497 97.7658L29.3376 97.9102L29.0255 98.0458L28.7134 98.1725L28.4013 98.2905L28.0892 98.3994L27.7771 98.4995L27.465 98.5905L27.1529 98.6725L26.8408 98.7454L26.5287 98.8093L26.2166 98.864L25.9045 98.9095L25.5924 98.9459L25.2803 98.9731L24.9682 98.9912L24.6561 99L24.3439 98.9996L24.0318 98.9901L23.7197 98.9713L23.4076 98.9434L23.0955 98.9062L22.7834 98.8599L22.4713 98.8045L22.1592 98.74L21.8471 98.6663L21.535 98.5836L21.2229 98.4918L20.9108 98.3911L20.5987 98.2814L20.2866 98.1628L19.9745 98.0353L19.6624 97.899L19.3503 97.754L19.0382 97.6002L18.7261 97.4378L18.414 97.2668L18.1019 97.0874L17.7898 96.8995L17.4777 96.7032L17.1656 96.4986L16.8535 96.2859L16.5414 96.065L16.2293 95.8361L15.9172 95.5993L15.6051 95.3547L15.293 95.1022L14.9809 94.8422L14.6688 94.5746L14.3567 94.2996L14.0446 94.0173L13.7325 93.7277L13.4204 93.4311L13.1083 93.1275L12.7962 92.8171L12.4841 92.4999L12.172 92.1761L11.8599 91.8459L11.5478 91.5093L11.2357 91.1665L10.9236 90.8176L10.6115 90.4629L10.2994 90.1023L9.98726 89.7361L9.67516 89.3644L9.36306 88.9873L9.05096 88.6051L8.73885 88.2178L8.42675 87.8256L8.11465 87.4287L7.80255 87.0273L7.49045 86.6214L7.17834 86.2112L6.86624 85.797L6.55414 85.3789L6.24204 84.957L5.92994 84.5315L5.61783 84.1026L5.30573 83.6705L4.99363 83.2353L4.68153 82.7973L4.36943 82.3564L4.05732 81.9131L3.74522 81.4674L3.43312 81.0195L3.12102 80.5696L2.80892 80.1179L2.49682 79.6645L2.18471 79.2096L1.87261 78.7535L1.56051 78.2963L1.24841 77.8381L0.936306 77.3792L0.624204 76.9198L0.312102 76.46Z" fill="#001F70"/>
<path d="M49.5987 75.5L49 76L237 75.9204L236.401 75.4204L235.803 74.9205L235.204 74.4206L234.605 73.921L234.006 73.4215L233.408 72.9223L232.809 72.4234L232.21 71.9249L231.611 71.4268L231.013 70.9291L230.414 70.4319L229.815 69.9353L229.217 69.4393L228.618 68.944L228.019 68.4494L227.42 67.9555L226.822 67.4624L226.223 66.9702L225.624 66.4789L225.025 65.9885L224.427 65.4991L223.828 65.0108L223.229 64.5236L222.631 64.0375L222.032 63.5527L221.433 63.069L220.834 62.5867L220.236 62.1057L219.637 61.6261L219.038 61.1479L218.439 60.6712L217.841 60.1961L217.242 59.7225L216.643 59.2506L216.045 58.7803L215.446 58.3118L214.847 57.845L214.248 57.38L213.65 56.9169L213.051 56.4558L212.452 55.9965L211.854 55.5393L211.255 55.0841L210.656 54.631L210.057 54.18L209.459 53.7313L208.86 53.2847L208.261 52.8404L207.662 52.3985L207.064 51.9589L206.465 51.5217L205.866 51.0869L205.268 50.6546L204.669 50.2249L204.07 49.7978L203.471 49.3732L202.873 48.9514L202.274 48.5322L201.675 48.1158L201.076 47.7022L200.478 47.2914L199.879 46.8835L199.28 46.4784L198.682 46.0764L198.083 45.6773L197.484 45.2813L196.885 44.8883L196.287 44.4985L195.688 44.1118L195.089 43.7282L194.49 43.348L193.892 42.9709L193.293 42.5972L192.694 42.2268L192.096 41.8598L191.497 41.4962L190.898 41.1361L190.299 40.7795L189.701 40.4263L189.102 40.0767L188.503 39.7308L187.904 39.3884L187.306 39.0497L186.707 38.7147L186.108 38.3835L185.51 38.056L184.911 37.7322L184.312 37.4124L183.713 37.0963L183.115 36.7842L182.516 36.476L181.917 36.1717L181.318 35.8714L180.72 35.5752L180.121 35.2829L179.522 34.9948L178.924 34.7107L178.325 34.4308L177.726 34.155L177.127 33.8835L176.529 33.6161L175.93 33.353L175.331 33.0941L174.732 32.8395L174.134 32.5893L173.535 32.3433L172.936 32.1018L172.338 31.8646L171.739 31.6319L171.14 31.4036L170.541 31.1797L169.943 30.9603L169.344 30.7455L168.745 30.5351L168.146 30.3293L167.548 30.1281L166.949 29.9314L166.35 29.7394L165.752 29.552L165.153 29.3692L164.554 29.1911L163.955 29.0177L163.357 28.849L162.758 28.685L162.159 28.5257L161.561 28.3712L160.962 28.2214L160.363 28.0764L159.764 27.9362L159.166 27.8008L158.567 27.6703L157.968 27.5445L157.369 27.4236L156.771 27.3076L156.172 27.1964L155.573 27.0902L154.975 26.9888L154.376 26.8923L153.777 26.8007L153.178 26.714L152.58 26.6323L151.981 26.5555L151.382 26.4836L150.783 26.4167L150.185 26.3548L149.586 26.2978L148.987 26.2458L148.389 26.1988L147.79 26.1567L147.191 26.1197L146.592 26.0876L145.994 26.0605L145.395 26.0384L144.796 26.0213L144.197 26.0092L143.599 26.0021L143 26L142.401 26.0029L141.803 26.0108L141.204 26.0237L140.605 26.0416L140.006 26.0645L139.408 26.0924L138.809 26.1252L138.21 26.1631L137.611 26.2059L137.013 26.2538L136.414 26.3066L135.815 26.3643L135.217 26.4271L134.618 26.4948L134.019 26.5674L133.42 26.645L132.822 26.7275L132.223 26.8149L131.624 26.9073L131.025 27.0046L130.427 27.1068L129.828 27.2138L129.229 27.3258L128.631 27.4426L128.032 27.5642L127.433 27.6907L126.834 27.8221L126.236 27.9582L125.637 28.0992L125.038 28.2449L124.439 28.3955L123.841 28.5508L123.242 28.7108L122.643 28.8755L122.045 29.045L121.446 29.2192L120.847 29.398L120.248 29.5815L119.65 29.7697L119.051 29.9625L118.452 30.1598L117.854 30.3618L117.255 30.5683L116.656 30.7794L116.057 30.995L115.459 31.2151L114.86 31.4396L114.261 31.6686L113.662 31.9021L113.064 32.14L112.465 32.3822L111.866 32.6288L111.268 32.8798L110.669 33.135L110.07 33.3946L109.471 33.6584L108.873 33.9264L108.274 34.1987L107.675 34.4751L107.076 34.7557L106.478 35.0404L105.879 35.3292L105.28 35.6221L104.682 35.919L104.083 36.2199L103.484 36.5248L102.885 36.8336L102.287 37.1464L101.688 37.463L101.089 37.7835L100.49 38.1079L99.8917 38.436L99.293 38.7678L98.6943 39.1034L98.0955 39.4427L97.4968 39.7856L96.8981 40.1322L96.2994 40.4823L95.7006 40.836L95.1019 41.1932L94.5032 41.5539L93.9045 41.9181L93.3057 42.2856L92.707 42.6565L92.1083 43.0308L91.5096 43.4083L90.9108 43.7891L90.3121 44.1731L89.7134 44.5603L89.1146 44.9507L88.5159 45.3441L87.9172 45.7407L87.3185 46.1402L86.7197 46.5428L86.121 46.9482L85.5223 47.3566L84.9236 47.7679L84.3248 48.1819L83.7261 48.5988L83.1274 49.0184L82.5287 49.4407L81.9299 49.8656L81.3312 50.2932L80.7325 50.7233L80.1338 51.156L79.535 51.5911L78.9363 52.0287L78.3376 52.4687L77.7389 52.911L77.1401 53.3557L76.5414 53.8026L75.9427 54.2517L75.3439 54.703L74.7452 55.1565L74.1465 55.612L73.5478 56.0695L72.949 56.5291L72.3503 56.9906L71.7516 57.454L71.1529 57.9192L70.5541 58.3863L69.9554 58.8551L69.3567 59.3256L68.758 59.7978L68.1592 60.2717L67.5605 60.7471L66.9618 61.224L66.3631 61.7024L65.7643 62.1822L65.1656 62.6634L64.5669 63.146L63.9682 63.6298L63.3694 64.1149L62.7707 64.6011L62.172 65.0885L61.5732 65.577L60.9745 66.0665L60.3758 66.5571L59.7771 67.0485L59.1783 67.5409L58.5796 68.0341L57.9809 68.5281L57.3822 69.0228L56.7834 69.5183L56.1847 70.0144L55.586 70.5111L54.9873 71.0083L54.3885 71.5061L53.7898 72.0043L53.1911 72.5029L52.5924 73.0018L51.9936 73.501L51.3949 74.0005L50.7962 74.5002L50.1975 75.0001L49.5987 75.5Z" fill="#7CC9F2"/>
<line x1="49.5" y1="76" x2="49.5" y2="34" stroke="#C4C4C4" stroke-dasharray="2 2"/>
<line y1="75.5" x2="290" y2="75.5" stroke="#C4C4C4" stroke-dasharray="2 2"/>
<line x1="237.5" y1="76" x2="237.5" y2="34" stroke="#C4C4C4" stroke-dasharray="2 2"/>
<path d="M222.115 11.07C221.655 11.07 221.241 10.99 220.875 10.83C220.515 10.6633 220.231 10.4367 220.025 10.15C219.818 9.85667 219.711 9.52 219.705 9.14H220.675C220.708 9.46667 220.841 9.74333 221.075 9.97C221.315 10.19 221.661 10.3 222.115 10.3C222.548 10.3 222.888 10.1933 223.135 9.98C223.388 9.76 223.515 9.48 223.515 9.14C223.515 8.87333 223.441 8.65667 223.295 8.49C223.148 8.32333 222.965 8.19667 222.745 8.11C222.525 8.02333 222.228 7.93 221.855 7.83C221.395 7.71 221.025 7.59 220.745 7.47C220.471 7.35 220.235 7.16333 220.035 6.91C219.841 6.65 219.745 6.30333 219.745 5.87C219.745 5.49 219.841 5.15333 220.035 4.86C220.228 4.56667 220.498 4.34 220.845 4.18C221.198 4.02 221.601 3.94 222.055 3.94C222.708 3.94 223.241 4.10333 223.655 4.43C224.075 4.75667 224.311 5.19 224.365 5.73H223.365C223.331 5.46333 223.191 5.23 222.945 5.03C222.698 4.82333 222.371 4.72 221.965 4.72C221.585 4.72 221.275 4.82 221.035 5.02C220.795 5.21333 220.675 5.48667 220.675 5.84C220.675 6.09333 220.745 6.3 220.885 6.46C221.031 6.62 221.208 6.74333 221.415 6.83C221.628 6.91 221.925 7.00333 222.305 7.11C222.765 7.23667 223.135 7.36333 223.415 7.49C223.695 7.61 223.935 7.8 224.135 8.06C224.335 8.31333 224.435 8.66 224.435 9.1C224.435 9.44 224.345 9.76 224.165 10.06C223.985 10.36 223.718 10.6033 223.365 10.79C223.011 10.9767 222.595 11.07 222.115 11.07ZM230.634 5.52V11H229.724V10.19C229.551 10.47 229.307 10.69 228.994 10.85C228.687 11.0033 228.347 11.08 227.974 11.08C227.547 11.08 227.164 10.9933 226.824 10.82C226.484 10.64 226.214 10.3733 226.014 10.02C225.821 9.66667 225.724 9.23667 225.724 8.73V5.52H226.624V8.61C226.624 9.15 226.761 9.56667 227.034 9.86C227.307 10.1467 227.681 10.29 228.154 10.29C228.641 10.29 229.024 10.14 229.304 9.84C229.584 9.54 229.724 9.10333 229.724 8.53V5.52H230.634ZM234.84 5.42C235.507 5.42 236.047 5.62333 236.46 6.03C236.874 6.43 237.08 7.01 237.08 7.77V11H236.18V7.9C236.18 7.35333 236.044 6.93667 235.77 6.65C235.497 6.35667 235.124 6.21 234.65 6.21C234.17 6.21 233.787 6.36 233.5 6.66C233.22 6.96 233.08 7.39667 233.08 7.97V11H232.17V5.52H233.08V6.3C233.26 6.02 233.504 5.80333 233.81 5.65C234.124 5.49667 234.467 5.42 234.84 5.42ZM240.507 11.09C240.087 11.09 239.71 11.02 239.377 10.88C239.044 10.7333 238.78 10.5333 238.587 10.28C238.394 10.02 238.287 9.72333 238.267 9.39H239.207C239.234 9.66333 239.36 9.88667 239.587 10.06C239.82 10.2333 240.124 10.32 240.497 10.32C240.844 10.32 241.117 10.2433 241.317 10.09C241.517 9.93667 241.617 9.74333 241.617 9.51C241.617 9.27 241.51 9.09333 241.297 8.98C241.084 8.86 240.754 8.74333 240.307 8.63C239.9 8.52333 239.567 8.41667 239.307 8.31C239.054 8.19667 238.834 8.03333 238.647 7.82C238.467 7.6 238.377 7.31333 238.377 6.96C238.377 6.68 238.46 6.42333 238.627 6.19C238.794 5.95667 239.03 5.77333 239.337 5.64C239.644 5.5 239.994 5.43 240.387 5.43C240.994 5.43 241.484 5.58333 241.857 5.89C242.23 6.19667 242.43 6.61667 242.457 7.15H241.547C241.527 6.86333 241.41 6.63333 241.197 6.46C240.99 6.28667 240.71 6.2 240.357 6.2C240.03 6.2 239.77 6.27 239.577 6.41C239.384 6.55 239.287 6.73333 239.287 6.96C239.287 7.14 239.344 7.29 239.457 7.41C239.577 7.52333 239.724 7.61667 239.897 7.69C240.077 7.75667 240.324 7.83333 240.637 7.92C241.03 8.02667 241.35 8.13333 241.597 8.24C241.844 8.34 242.054 8.49333 242.227 8.7C242.407 8.90667 242.5 9.17667 242.507 9.51C242.507 9.81 242.424 10.08 242.257 10.32C242.09 10.56 241.854 10.75 241.547 10.89C241.247 11.0233 240.9 11.09 240.507 11.09ZM248.791 8.05C248.791 8.22333 248.781 8.40667 248.761 8.6H244.381C244.415 9.14 244.598 9.56333 244.931 9.87C245.271 10.17 245.681 10.32 246.161 10.32C246.555 10.32 246.881 10.23 247.141 10.05C247.408 9.86333 247.595 9.61667 247.701 9.31H248.681C248.535 9.83667 248.241 10.2667 247.801 10.6C247.361 10.9267 246.815 11.09 246.161 11.09C245.641 11.09 245.175 10.9733 244.761 10.74C244.355 10.5067 244.035 10.1767 243.801 9.75C243.568 9.31667 243.451 8.81667 243.451 8.25C243.451 7.68333 243.565 7.18667 243.791 6.76C244.018 6.33333 244.335 6.00667 244.741 5.78C245.155 5.54667 245.628 5.43 246.161 5.43C246.681 5.43 247.141 5.54333 247.541 5.77C247.941 5.99667 248.248 6.31 248.461 6.71C248.681 7.10333 248.791 7.55 248.791 8.05ZM247.851 7.86C247.851 7.51333 247.775 7.21667 247.621 6.97C247.468 6.71667 247.258 6.52667 246.991 6.4C246.731 6.26667 246.441 6.2 246.121 6.2C245.661 6.2 245.268 6.34667 244.941 6.64C244.621 6.93333 244.438 7.34 244.391 7.86H247.851ZM251.103 6.27V9.5C251.103 9.76667 251.159 9.95667 251.273 10.07C251.386 10.1767 251.583 10.23 251.863 10.23H252.533V11H251.713C251.206 11 250.826 10.8833 250.573 10.65C250.319 10.4167 250.193 10.0333 250.193 9.5V6.27H249.483V5.52H250.193V4.14H251.103V5.52H252.533V6.27H251.103Z" fill="#C4C4C4"/>
<path d="M258.14 65.03V72H257.23V68.84H253.68V72H252.77V65.03H253.68V68.09H257.23V65.03H258.14ZM262.084 72.09C261.57 72.09 261.104 71.9733 260.684 71.74C260.27 71.5067 259.944 71.1767 259.704 70.75C259.47 70.3167 259.354 69.8167 259.354 69.25C259.354 68.69 259.474 68.1967 259.714 67.77C259.96 67.3367 260.294 67.0067 260.714 66.78C261.134 66.5467 261.604 66.43 262.124 66.43C262.644 66.43 263.114 66.5467 263.534 66.78C263.954 67.0067 264.284 67.3333 264.524 67.76C264.77 68.1867 264.894 68.6833 264.894 69.25C264.894 69.8167 264.767 70.3167 264.514 70.75C264.267 71.1767 263.93 71.5067 263.504 71.74C263.077 71.9733 262.604 72.09 262.084 72.09ZM262.084 71.29C262.41 71.29 262.717 71.2133 263.004 71.06C263.29 70.9067 263.52 70.6767 263.694 70.37C263.874 70.0633 263.964 69.69 263.964 69.25C263.964 68.81 263.877 68.4367 263.704 68.13C263.53 67.8233 263.304 67.5967 263.024 67.45C262.744 67.2967 262.44 67.22 262.114 67.22C261.78 67.22 261.474 67.2967 261.194 67.45C260.92 67.5967 260.7 67.8233 260.534 68.13C260.367 68.4367 260.284 68.81 260.284 69.25C260.284 69.6967 260.364 70.0733 260.524 70.38C260.69 70.6867 260.91 70.9167 261.184 71.07C261.457 71.2167 261.757 71.29 262.084 71.29ZM267 67.41C267.16 67.0967 267.387 66.8533 267.68 66.68C267.98 66.5067 268.344 66.42 268.77 66.42V67.36H268.53C267.51 67.36 267 67.9133 267 69.02V72H266.09V66.52H267V67.41ZM270.291 65.63C270.117 65.63 269.971 65.57 269.851 65.45C269.731 65.33 269.671 65.1833 269.671 65.01C269.671 64.8367 269.731 64.69 269.851 64.57C269.971 64.45 270.117 64.39 270.291 64.39C270.457 64.39 270.597 64.45 270.711 64.57C270.831 64.69 270.891 64.8367 270.891 65.01C270.891 65.1833 270.831 65.33 270.711 65.45C270.597 65.57 270.457 65.63 270.291 65.63ZM270.731 66.52V72H269.821V66.52H270.731ZM272.962 71.25H275.652V72H271.922V71.25L274.582 67.26H271.942V66.52H275.632V67.26L272.962 71.25ZM279.223 72.09C278.709 72.09 278.243 71.9733 277.823 71.74C277.409 71.5067 277.083 71.1767 276.843 70.75C276.609 70.3167 276.493 69.8167 276.493 69.25C276.493 68.69 276.613 68.1967 276.853 67.77C277.099 67.3367 277.433 67.0067 277.853 66.78C278.273 66.5467 278.743 66.43 279.263 66.43C279.783 66.43 280.253 66.5467 280.673 66.78C281.093 67.0067 281.423 67.3333 281.663 67.76C281.909 68.1867 282.033 68.6833 282.033 69.25C282.033 69.8167 281.906 70.3167 281.653 70.75C281.406 71.1767 281.069 71.5067 280.643 71.74C280.216 71.9733 279.743 72.09 279.223 72.09ZM279.223 71.29C279.549 71.29 279.856 71.2133 280.143 71.06C280.429 70.9067 280.659 70.6767 280.833 70.37C281.013 70.0633 281.103 69.69 281.103 69.25C281.103 68.81 281.016 68.4367 280.843 68.13C280.669 67.8233 280.443 67.5967 280.163 67.45C279.883 67.2967 279.579 67.22 279.253 67.22C278.919 67.22 278.613 67.2967 278.333 67.45C278.059 67.5967 277.839 67.8233 277.673 68.13C277.506 68.4367 277.423 68.81 277.423 69.25C277.423 69.6967 277.503 70.0733 277.663 70.38C277.829 70.6867 278.049 70.9167 278.323 71.07C278.596 71.2167 278.896 71.29 279.223 71.29ZM285.899 66.42C286.566 66.42 287.106 66.6233 287.519 67.03C287.932 67.43 288.139 68.01 288.139 68.77V72H287.239V68.9C287.239 68.3533 287.102 67.9367 286.829 67.65C286.556 67.3567 286.182 67.21 285.709 67.21C285.229 67.21 284.846 67.36 284.559 67.66C284.279 67.96 284.139 68.3967 284.139 68.97V72H283.229V66.52H284.139V67.3C284.319 67.02 284.562 66.8033 284.869 66.65C285.182 66.4967 285.526 66.42 285.899 66.42Z" fill="#C4C4C4"/>
</svg>
